<svg width="50px" height="50px" viewBox="0 0 200 200" fill="white" xmlns="http://www.w3.org/2000/svg">
      <g id="Frame 1" clip-path="url(#clip0)">
        <g id="BigGroup">
          <g id="imagebot 4">
            <g id="tweakSprout">
              <path id="Sprout" d="M150.264 3.31091C150.979 6.03478 155.827 28.7756 128.397 58.7037C115.68 76.3181 75.1259 130.674 105.546 152.671C103.88 157.826 101.837 163.151 103.462 181.34C97.479 167.697 91.0086 164.609 88.4644 162.148C96.3632 130.312 74.9712 120.536 55.2182 105.83C32.2499 93.7331 31.9687 73.6882 31.9687 73.6882C31.9687 73.6882 30.7419 163.98 69.6114 171.229C69.6114 171.229 82.4838 170.592 87.7014 164.586C101.585 178.036 104.769 192.678 104.769 192.678L108.316 191.78C104.394 182.285 108.366 155.478 108.366 155.478C118.466 158.491 132.864 146.51 132.864 146.51C186.829 108.531 151.273 6.17689 150.264 3.30823L150.264 3.31091Z" fill="#44AA00"/>
            </g>
          </g>
          <ellipse id="Ellipse 1" cx="107" cy="192.5" rx="3" ry="2.5" fill="#C4C4C4"/>
        </g>
      </g>
</svg>